<svg width="50" height="50" viewBox="0 0 50 50" fill="none" xmlns="http://www.w3.org/2000/svg">
<path d="M24.5338 0.122238C24.3705 0.303154 22.8224 3.58408 21.8571 5.79418C21.3954 6.84055 20.4815 8.9333 19.8193 10.4393C18.5556 13.3242 17.6976 15.2115 17.4597 15.6223C17.3805 15.7592 17.2499 15.9205 17.166 15.9792C16.8116 16.2335 15.9116 16.4242 9.70026 17.5781C3.15785 18.7907 0.429905 19.3286 0.145452 19.4704C-0.013095 19.5437 -0.0410739 19.6464 0.0568523 19.8029C0.136126 19.93 1.08275 20.8444 2.28584 21.9543C3.21381 22.81 3.38168 22.9567 8.81426 27.5773C11.8453 30.1542 12.7826 31.0147 12.9785 31.3912C13.081 31.5966 13.0857 31.6455 13.0624 32.0758C12.9971 33.127 12.8712 33.836 11.6122 40.2659C10.1852 47.5465 9.8215 49.5659 9.89145 49.8495C9.9474 50.094 10.0826 50.0597 10.9966 49.605C12.6287 48.7787 13.3049 48.4022 17.4644 45.9622C21.9224 43.3463 22.6825 42.9111 23.6058 42.4271C24.6177 41.8941 25.0793 41.7083 25.3778 41.7083C25.6296 41.7083 26.3104 41.9821 27.3223 42.4857C27.8772 42.7644 30.7451 44.3096 32.2233 45.131C33.8647 46.0405 36.4341 47.4291 37.2129 47.8252C38.3553 48.407 40.0807 49.2187 40.2626 49.2627C40.4398 49.3018 40.547 49.1894 40.547 48.9596C40.547 48.4999 40.174 46.3045 39.0128 39.948C37.903 33.8703 37.7771 33.1759 37.6326 32.1247C37.474 31.0245 37.4414 30.4769 37.516 30.2422C37.6326 29.8755 38.2294 29.318 42.832 25.2841C44.6926 23.6559 46.5485 22.013 46.9589 21.6365C48.2039 20.4972 49.9246 18.8201 49.9759 18.6978C50.0459 18.5414 49.9666 18.4534 49.6961 18.3898C49.2112 18.2822 46.2734 17.9204 42.4822 17.5048C34.2937 16.6051 33.2865 16.478 32.8808 16.2873C32.7129 16.2139 32.629 16.1259 32.4798 15.8814C32.2419 15.5 30.8477 12.5858 28.4974 7.5691C26.5949 3.50584 26.5249 3.35916 25.5596 1.44732C24.9768 0.2836 24.8042 0 24.6923 0C24.6643 0 24.5897 0.0537834 24.5338 0.122238Z" fill="#FFD600"/>
</svg>
